<?xml version="1.0" standalone="no"?>
<!DOCTYPE svg PUBLIC "-//W3C//DTD SVG 20010904//EN"
 "http://www.w3.org/TR/2001/REC-SVG-20010904/DTD/svg10.dtd">
<svg version="1.0" xmlns="http://www.w3.org/2000/svg"
 width="100.000000pt" height="100.000000pt" viewBox="0 0 100.000000 100.000000"
 preserveAspectRatio="xMidYMid meet">

<g transform="translate(0.000000,100.000000) scale(0.100000,-0.100000)"
fill="#000000" stroke="none">
<path d="M446 977 c-13 -13 -47 -29 -78 -35 -30 -7 -90 -31 -134 -52 -43 -22
-90 -40 -105 -40 -52 0 -117 -77 -105 -125 3 -13 -1 -42 -9 -65 -29 -81 -10
-165 41 -189 17 -8 152 -11 445 -11 473 0 469 -1 490 69 7 23 9 58 5 85 -8 54
-70 152 -121 190 -19 15 -41 42 -49 60 -7 18 -26 43 -42 55 -24 19 -37 22 -79
18 -61 -7 -120 9 -151 40 -30 30 -78 30 -108 0z m323 -101 c26 -28 21 -46 -13
-46 -26 0 -66 34 -66 55 0 25 54 18 79 -9z m-383 -81 c56 -56 5 -128 -52 -74
-23 22 -33 76 -17 92 14 14 45 6 69 -18z m-240 0 c8 -20 -20 -62 -47 -70 -30
-10 -44 8 -28 36 23 45 64 63 75 34z m645 -122 c8 -21 7 -34 -3 -53 -18 -33
-50 -32 -62 2 -22 61 42 110 65 51z"/>
<path d="M180 233 l67 -188 56 -3 c32 -2 57 1 57 6 0 5 -14 77 -31 161 -22
110 -28 156 -20 164 20 20 30 -6 62 -171 l31 -162 39 0 39 0 2 168 c3 141 5
167 18 167 13 0 15 -26 18 -167 l2 -168 38 0 38 0 32 162 c32 164 42 192 63
171 8 -8 3 -51 -20 -160 -17 -81 -31 -154 -31 -161 0 -9 15 -12 57 -10 l56 3
67 188 67 187 -387 0 -387 0 67 -187z"/>
</g>
</svg>
