<?xml version="1.0" standalone="no"?>
<!DOCTYPE svg PUBLIC "-//W3C//DTD SVG 20010904//EN"
 "http://www.w3.org/TR/2001/REC-SVG-20010904/DTD/svg10.dtd">
<svg version="1.0" xmlns="http://www.w3.org/2000/svg"
 width="90.000000pt" height="90.000000pt" viewBox="0 0 90.000000 90.000000"
 preserveAspectRatio="xMidYMid meet">

<g transform="translate(0.000000,90.000000) scale(0.100000,-0.100000)"
fill="#000000" stroke="none">
<path d="M727 796 c-51 -19 -65 -32 -76 -74 -14 -50 0 -72 48 -72 48 0 85 32
100 86 22 78 9 89 -72 60z"/>
<path d="M550 752 c-48 -25 -76 -83 -64 -130 13 -51 37 -62 69 -32 14 13 29
40 35 59 12 43 13 121 2 121 -4 0 -23 -8 -42 -18z"/>
<path d="M398 633 c-41 -47 -52 -129 -22 -171 20 -29 38 -28 63 4 24 30 28
100 10 153 -12 35 -29 39 -51 14z"/>
<path d="M644 589 c-44 -13 -81 -55 -68 -77 18 -29 75 -37 117 -17 34 16 77
68 77 94 0 13 -80 13 -126 0z"/>
<path d="M268 493 c-15 -15 -32 -41 -38 -58 -22 -59 13 -145 54 -129 44 17 59
109 28 177 l-17 38 -27 -28z"/>
<path d="M466 439 c-14 -11 -26 -26 -26 -33 0 -48 111 -63 170 -23 45 30 47
43 11 61 -44 23 -122 21 -155 -5z"/>
<path d="M125 350 c-52 -54 -42 -175 15 -175 52 0 74 101 39 179 -15 33 -19
33 -54 -4z"/>
<path d="M339 315 c-53 -29 -41 -70 24 -85 50 -11 96 3 132 40 l28 30 -36 15
c-45 19 -114 19 -148 0z"/>
<path d="M225 191 c-30 -13 -56 -46 -50 -64 10 -24 61 -40 107 -34 71 10 122
63 80 86 -27 14 -114 22 -137 12z"/>
</g>
</svg>
