<?xml version="1.0" standalone="no"?>
<!DOCTYPE svg PUBLIC "-//W3C//DTD SVG 20010904//EN"
 "http://www.w3.org/TR/2001/REC-SVG-20010904/DTD/svg10.dtd">
<svg version="1.0" xmlns="http://www.w3.org/2000/svg"
 width="64.000000pt" height="64.000000pt" viewBox="0 0 64.000000 64.000000"
 preserveAspectRatio="xMidYMid meet">

<g transform="translate(0.000000,64.000000) scale(0.100000,-0.100000)"
fill="#000000" stroke="none">
<path d="M488 436 l-77 -41 -66 34 c-97 49 -129 50 -190 9 -50 -34 -129 -137
-141 -185 -5 -20 -1 -30 22 -49 124 -104 273 -105 371 -2 17 18 41 54 52 80
15 36 36 58 95 102 42 31 76 58 76 61 0 5 -57 36 -62 34 -2 -1 -38 -20 -80
-43z m-190 -25 c20 -10 57 -37 82 -60 l45 -41 -25 -20 c-14 -11 -49 -32 -78
-46 -47 -24 -60 -26 -145 -22 -50 2 -102 10 -114 16 -22 12 -22 14 -6 40 34
54 87 115 117 133 39 24 77 24 124 0z"/>
<path d="M200 365 c0 -8 7 -15 15 -15 8 0 15 7 15 15 0 8 -7 15 -15 15 -8 0
-15 -7 -15 -15z"/>
<path d="M240 325 c0 -8 7 -15 15 -15 8 0 15 7 15 15 0 8 -7 15 -15 15 -8 0
-15 -7 -15 -15z"/>
<path d="M170 315 c0 -8 7 -15 15 -15 8 0 15 7 15 15 0 8 -7 15 -15 15 -8 0
-15 -7 -15 -15z"/>
</g>
</svg>
