<?xml version="1.0" standalone="no"?>
<!DOCTYPE svg PUBLIC "-//W3C//DTD SVG 20010904//EN"
 "http://www.w3.org/TR/2001/REC-SVG-20010904/DTD/svg10.dtd">
<svg version="1.0" xmlns="http://www.w3.org/2000/svg"
 width="100.000000pt" height="100.000000pt" viewBox="0 0 100.000000 100.000000"
 preserveAspectRatio="xMidYMid meet">

<g transform="translate(0.000000,100.000000) scale(0.100000,-0.100000)"
fill="#000000" stroke="none">
<path d="M327 974 c-4 -4 -7 -25 -7 -47 0 -27 -12 -62 -40 -112 l-40 -73 2
-348 3 -349 245 0 245 0 3 351 2 351 -27 59 c-15 32 -29 84 -32 114 l-6 55
-171 3 c-93 1 -173 -1 -177 -4z m313 -54 c0 -19 -7 -20 -140 -20 -133 0 -140
1 -140 20 0 19 7 20 140 20 133 0 140 -1 140 -20z m-32 -110 l-21 -50 -143 0
c-79 0 -144 3 -144 6 0 3 12 25 26 50 l26 44 138 0 139 0 -21 -50z m75 -33
c24 -60 26 -312 1 -303 -9 3 -27 9 -40 12 -24 6 -24 8 -24 127 0 93 4 132 18
164 9 24 19 43 22 43 3 0 13 -19 23 -43z m-103 -176 l0 -118 -36 -6 c-47 -8
-75 7 -115 59 -37 49 -89 79 -125 70 -23 -6 -24 -5 -24 54 l0 60 150 0 150 0
0 -119z m-181 -91 c63 -66 93 -82 145 -73 l36 6 0 -182 0 -181 -150 0 -150 0
0 235 c0 212 2 235 18 244 31 18 44 12 101 -49z m284 -92 c15 -17 17 -42 17
-179 l0 -159 -40 0 -40 0 0 186 0 185 23 -6 c12 -4 30 -16 40 -27z"/>
</g>
</svg>
