<?xml version="1.0" standalone="no"?>
<!DOCTYPE svg PUBLIC "-//W3C//DTD SVG 20010904//EN"
 "http://www.w3.org/TR/2001/REC-SVG-20010904/DTD/svg10.dtd">
<svg version="1.0" xmlns="http://www.w3.org/2000/svg"
 width="90.000000pt" height="90.000000pt" viewBox="0 0 90.000000 90.000000"
 preserveAspectRatio="xMidYMid meet">

<g transform="translate(0.000000,90.000000) scale(0.100000,-0.100000)"
fill="#000000" stroke="none">
<path d="M461 865 c-17 -20 -34 -50 -38 -66 -4 -24 -13 -31 -47 -40 -219 -57
-245 -67 -252 -95 -4 -17 0 -31 11 -44 17 -19 33 -20 315 -20 282 0 298 1 315
20 24 26 13 64 -22 78 -16 6 -81 25 -145 43 -67 18 -118 37 -118 43 0 7 14 25
30 41 35 34 37 68 4 73 -14 2 -32 -9 -53 -33z"/>
<path d="M157 533 c-13 -12 -7 -179 7 -227 30 -100 103 -173 202 -202 29 -8
55 -21 58 -29 3 -8 15 -15 26 -15 11 0 23 7 26 15 3 8 29 21 58 29 104 31 183
115 206 220 6 28 10 87 8 131 l-3 80 -291 3 c-160 1 -293 -1 -297 -5z"/>
</g>
</svg>
