<?xml version="1.0" standalone="no"?>
<!DOCTYPE svg PUBLIC "-//W3C//DTD SVG 20010904//EN"
 "http://www.w3.org/TR/2001/REC-SVG-20010904/DTD/svg10.dtd">
<svg version="1.0" xmlns="http://www.w3.org/2000/svg"
 width="100.000000pt" height="100.000000pt" viewBox="0 0 100.000000 100.000000"
 preserveAspectRatio="xMidYMid meet">

<g transform="translate(0.000000,100.000000) scale(0.100000,-0.100000)"
fill="#000000" stroke="none">
<path d="M863 951 c-33 -61 -55 -81 -114 -111 -74 -38 -121 -85 -159 -161 -17
-33 -36 -61 -43 -63 -105 -30 -180 -86 -228 -171 -26 -47 -34 -53 -86 -69 -84
-26 -162 -107 -193 -200 -12 -36 -19 -73 -16 -81 11 -31 139 -75 216 -75 53 0
129 21 165 46 20 13 57 29 83 35 111 25 253 133 293 225 12 25 37 60 56 77 47
41 86 101 112 172 44 116 23 297 -43 380 l-24 30 -19 -34z m-14 -224 c19 -23
24 -73 11 -112 -22 -65 -108 -97 -150 -55 -54 54 17 180 101 180 15 0 32 -6
38 -13z m-220 -263 c41 -53 19 -157 -41 -194 -44 -26 -107 -26 -142 1 -75 59
23 217 136 219 17 0 34 -9 47 -26z m-285 -200 c25 -25 20 -86 -9 -114 -29 -27
-119 -39 -154 -21 -47 25 -18 100 54 139 30 17 91 14 109 -4z"/>
</g>
</svg>
