<?xml version="1.0" standalone="no"?>
<!DOCTYPE svg PUBLIC "-//W3C//DTD SVG 20010904//EN"
 "http://www.w3.org/TR/2001/REC-SVG-20010904/DTD/svg10.dtd">
<svg version="1.0" xmlns="http://www.w3.org/2000/svg"
 width="100.000000pt" height="100.000000pt" viewBox="0 0 100.000000 100.000000"
 preserveAspectRatio="xMidYMid meet">

<g transform="translate(0.000000,100.000000) scale(0.100000,-0.100000)"
fill="#000000" stroke="none">
<path d="M181 904 c-143 -162 -159 -343 -41 -466 31 -32 50 -62 51 -78 1 -14
2 -37 3 -52 4 -67 41 -39 38 28 -1 25 -16 89 -33 142 -26 81 -30 109 -27 173
3 81 20 118 44 98 9 -8 10 -17 3 -35 -14 -39 -11 -130 7 -192 9 -32 18 -59 20
-61 9 -9 57 47 82 94 40 75 38 168 -6 252 -31 61 -87 133 -102 133 -4 0 -22
-16 -39 -36z"/>
<path d="M485 587 c-72 -19 -108 -41 -149 -89 -41 -47 -66 -119 -66 -186 0
-37 -7 -54 -45 -104 -25 -33 -45 -66 -45 -74 0 -30 36 -12 63 30 41 65 146
167 204 199 62 33 189 67 253 67 51 0 61 -5 53 -26 -3 -9 -21 -14 -52 -14 -64
0 -161 -25 -223 -56 -49 -25 -158 -118 -158 -135 0 -12 106 -48 163 -55 68 -8
156 10 232 49 67 33 178 140 210 200 l20 39 -30 25 c-137 114 -300 163 -430
130z"/>
</g>
</svg>
