<?xml version="1.0" standalone="no"?>
<!DOCTYPE svg PUBLIC "-//W3C//DTD SVG 20010904//EN"
 "http://www.w3.org/TR/2001/REC-SVG-20010904/DTD/svg10.dtd">
<svg version="1.0" xmlns="http://www.w3.org/2000/svg"
 width="66.000000pt" height="66.000000pt" viewBox="0 0 66.000000 66.000000"
 preserveAspectRatio="xMidYMid meet">

<g transform="translate(0.000000,66.000000) scale(0.100000,-0.100000)"
fill="#000000" stroke="none">
<path d="M137 613 c-9 -8 32 -53 49 -53 6 0 14 -8 16 -18 4 -12 21 -23 47 -29
36 -10 43 -9 51 7 15 27 3 48 -45 75 -39 24 -103 33 -118 18z"/>
<path d="M405 601 c-58 -35 -101 -102 -79 -123 3 -3 22 3 42 13 20 10 45 21
55 24 11 3 21 14 24 25 3 11 11 20 17 20 17 0 58 45 49 53 -13 14 -79 7 -108
-12z"/>
<path d="M125 478 c-27 -14 -65 -50 -65 -59 0 -5 52 -8 115 -7 63 1 117 -1
120 -4 3 -3 0 -39 -6 -79 -6 -41 -9 -118 -6 -172 l5 -97 -129 0 c-79 0 -129
-4 -129 -10 0 -6 107 -10 300 -10 193 0 300 4 300 10 0 6 -50 10 -129 10
l-129 0 -7 48 c-9 67 -10 290 -2 299 4 4 60 6 123 6 102 -1 115 1 112 15 -2 9
-18 27 -37 39 -50 34 -144 33 -195 -2 -34 -23 -39 -24 -53 -9 -9 8 -27 20 -40
25 -33 12 -124 11 -148 -3z"/>
</g>
</svg>
