<?xml version="1.0" standalone="no"?>
<!DOCTYPE svg PUBLIC "-//W3C//DTD SVG 20010904//EN"
 "http://www.w3.org/TR/2001/REC-SVG-20010904/DTD/svg10.dtd">
<svg version="1.0" xmlns="http://www.w3.org/2000/svg"
 width="96.000000pt" height="96.000000pt" viewBox="0 0 96.000000 96.000000"
 preserveAspectRatio="xMidYMid meet">

<g transform="translate(0.000000,96.000000) scale(0.100000,-0.100000)"
fill="#000000" stroke="none">
<path d="M530 846 c-184 -63 -318 -154 -378 -254 -23 -41 -27 -58 -27 -127 0
-63 5 -89 22 -121 21 -39 86 -106 114 -117 14 -5 4 -15 -66 -62 -34 -23 -40
-61 -13 -78 23 -15 73 13 150 82 120 109 220 272 257 421 22 88 38 75 27 -22
-13 -110 -74 -277 -130 -353 -40 -54 -40 -54 10 -76 36 -16 59 -20 95 -16 233
28 320 324 179 605 -49 96 -94 152 -123 152 -12 -1 -65 -16 -117 -34z"/>
</g>
</svg>
