<?xml version="1.0" standalone="no"?>
<!DOCTYPE svg PUBLIC "-//W3C//DTD SVG 20010904//EN"
 "http://www.w3.org/TR/2001/REC-SVG-20010904/DTD/svg10.dtd">
<svg version="1.0" xmlns="http://www.w3.org/2000/svg"
 width="100.000000pt" height="100.000000pt" viewBox="0 0 100.000000 100.000000"
 preserveAspectRatio="xMidYMid meet">

<g transform="translate(0.000000,100.000000) scale(0.100000,-0.100000)"
fill="#000000" stroke="none">
<path d="M785 916 c-99 -25 -159 -52 -192 -88 -28 -30 -53 -89 -53 -126 0 -33
18 -92 28 -92 4 0 20 23 37 51 16 27 48 71 71 97 33 36 45 44 54 35 10 -9 1
-27 -39 -80 -68 -91 -142 -236 -180 -356 -17 -53 -31 -104 -31 -112 0 -8 -3
-15 -8 -15 -4 0 -15 38 -25 85 -58 282 -182 527 -298 585 -75 39 -87 13 -29
-61 93 -118 171 -316 234 -594 49 -215 44 -205 111 -205 68 0 76 10 105 140
37 160 91 346 110 377 13 22 28 32 54 36 93 15 147 84 167 212 18 120 17 130
-6 132 -11 1 -60 -9 -110 -21z"/>
</g>
</svg>
